<mxfile host="Electron" agent="Mozilla/5.0 (Windows NT 10.0; Win64; x64) AppleWebKit/537.36 (KHTML, like Gecko) draw.io/26.0.4 Chrome/128.0.6613.186 Electron/32.2.5 Safari/537.36" version="26.0.4">
  <diagram name="Page-1" id="vkrniaKabSvrB_MvETOu">
    <mxGraphModel dx="1050" dy="629" grid="1" gridSize="10" guides="1" tooltips="1" connect="1" arrows="1" fold="1" page="1" pageScale="1" pageWidth="850" pageHeight="1100" math="0" shadow="1">
      <root>
        <mxCell id="0" />
        <mxCell id="1" parent="0" />
        <mxCell id="havA4zZPDXx-xcr6uS7B-1" value="Start" style="ellipse;whiteSpace=wrap;html=1;" parent="1" vertex="1">
          <mxGeometry x="285" y="120" width="120" height="40" as="geometry" />
        </mxCell>
        <mxCell id="havA4zZPDXx-xcr6uS7B-10" value="&lt;div style=&quot;&quot;&gt;&lt;span style=&quot;background-color: transparent; color: light-dark(rgb(0, 0, 0), rgb(255, 255, 255));&quot;&gt;&lt;font style=&quot;font-size: 17px;&quot;&gt;Game Loop&lt;/font&gt;&lt;/span&gt;&lt;/div&gt;" style="rounded=0;whiteSpace=wrap;html=1;align=right;verticalAlign=top;" parent="1" vertex="1">
          <mxGeometry x="125" y="325" width="600" height="555" as="geometry" />
        </mxCell>
        <mxCell id="havA4zZPDXx-xcr6uS7B-2" value="&lt;span style=&quot;font-size:11.0pt;line-height:107%;&lt;br/&gt;font-family:&amp;quot;Calibri&amp;quot;,sans-serif;mso-ascii-theme-font:minor-latin;mso-fareast-font-family:&lt;br/&gt;Calibri;mso-fareast-theme-font:minor-latin;mso-hansi-theme-font:minor-latin;&lt;br/&gt;mso-bidi-font-family:&amp;quot;Times New Roman&amp;quot;;mso-bidi-theme-font:minor-bidi;&lt;br/&gt;mso-ansi-language:EN-US;mso-fareast-language:EN-US;mso-bidi-language:AR-SA&quot;&gt;Initialize&lt;/span&gt;&amp;nbsp;&lt;span style=&quot;background-color: transparent; color: light-dark(rgb(0, 0, 0), rgb(255, 255, 255));&quot;&gt;Game (&lt;/span&gt;ncurses,&amp;nbsp;&lt;span style=&quot;background-color: transparent; color: light-dark(rgb(0, 0, 0), rgb(255, 255, 255));&quot;&gt;terminal size, best score and windows)&lt;/span&gt;" style="rounded=0;whiteSpace=wrap;html=1;" parent="1" vertex="1">
          <mxGeometry x="285" y="200" width="120" height="80" as="geometry" />
        </mxCell>
        <mxCell id="havA4zZPDXx-xcr6uS7B-4" value="Check Input&lt;div&gt;(ProcessInput)&lt;/div&gt;" style="rhombus;whiteSpace=wrap;html=1;shadow=1;" parent="1" vertex="1">
          <mxGeometry x="265" y="440" width="160" height="59" as="geometry" />
        </mxCell>
        <mxCell id="havA4zZPDXx-xcr6uS7B-5" value="Move Snake" style="rounded=0;whiteSpace=wrap;html=1;shadow=1;" parent="1" vertex="1">
          <mxGeometry x="485" y="510" width="120" height="40" as="geometry" />
        </mxCell>
        <mxCell id="havA4zZPDXx-xcr6uS7B-6" value="Did Snake Collide?" style="rhombus;whiteSpace=wrap;html=1;shadow=1;" parent="1" vertex="1">
          <mxGeometry x="465" y="620.5" width="160" height="59" as="geometry" />
        </mxCell>
        <mxCell id="havA4zZPDXx-xcr6uS7B-7" value="Did Snake Eat Apple?" style="rhombus;whiteSpace=wrap;html=1;shadow=1;" parent="1" vertex="1">
          <mxGeometry x="465" y="719.5" width="160" height="60" as="geometry" />
        </mxCell>
        <mxCell id="havA4zZPDXx-xcr6uS7B-8" value="Grow Snake and Update Score" style="rounded=0;whiteSpace=wrap;html=1;shadow=1;" parent="1" vertex="1">
          <mxGeometry x="485" y="819.5" width="120" height="40" as="geometry" />
        </mxCell>
        <mxCell id="havA4zZPDXx-xcr6uS7B-9" value="End" style="ellipse;whiteSpace=wrap;html=1;" parent="1" vertex="1">
          <mxGeometry x="285" y="920" width="120" height="40" as="geometry" />
        </mxCell>
        <mxCell id="havA4zZPDXx-xcr6uS7B-11" value="&lt;div&gt;Initialize Snake&lt;/div&gt;" style="rounded=0;whiteSpace=wrap;html=1;" parent="1" vertex="1">
          <mxGeometry x="285" y="361" width="120" height="39" as="geometry" />
        </mxCell>
        <mxCell id="havA4zZPDXx-xcr6uS7B-14" value="" style="endArrow=classic;html=1;rounded=0;" parent="1" edge="1">
          <mxGeometry width="50" height="50" relative="1" as="geometry">
            <mxPoint x="344.58000000000004" y="160" as="sourcePoint" />
            <mxPoint x="344.58000000000004" y="200" as="targetPoint" />
          </mxGeometry>
        </mxCell>
        <mxCell id="havA4zZPDXx-xcr6uS7B-17" value="" style="endArrow=classic;html=1;rounded=0;" parent="1" edge="1">
          <mxGeometry width="50" height="50" relative="1" as="geometry">
            <mxPoint x="344.58" y="280" as="sourcePoint" />
            <mxPoint x="345" y="360" as="targetPoint" />
          </mxGeometry>
        </mxCell>
        <mxCell id="havA4zZPDXx-xcr6uS7B-18" value="" style="endArrow=classic;html=1;rounded=0;" parent="1" edge="1">
          <mxGeometry width="50" height="50" relative="1" as="geometry">
            <mxPoint x="344.58000000000004" y="401" as="sourcePoint" />
            <mxPoint x="344.58000000000004" y="441" as="targetPoint" />
          </mxGeometry>
        </mxCell>
        <mxCell id="havA4zZPDXx-xcr6uS7B-32" value="" style="endArrow=classic;html=1;rounded=0;" parent="1" edge="1">
          <mxGeometry width="50" height="50" relative="1" as="geometry">
            <mxPoint x="545" y="550" as="sourcePoint" />
            <mxPoint x="544.58" y="620.5" as="targetPoint" />
          </mxGeometry>
        </mxCell>
        <mxCell id="havA4zZPDXx-xcr6uS7B-33" value="" style="endArrow=classic;html=1;rounded=0;" parent="1" edge="1">
          <mxGeometry width="50" height="50" relative="1" as="geometry">
            <mxPoint x="544.58" y="679.5" as="sourcePoint" />
            <mxPoint x="544.58" y="719.5" as="targetPoint" />
          </mxGeometry>
        </mxCell>
        <mxCell id="havA4zZPDXx-xcr6uS7B-34" value="" style="endArrow=classic;html=1;rounded=0;" parent="1" edge="1">
          <mxGeometry width="50" height="50" relative="1" as="geometry">
            <mxPoint x="544.58" y="779.5" as="sourcePoint" />
            <mxPoint x="544.58" y="819.5" as="targetPoint" />
          </mxGeometry>
        </mxCell>
        <mxCell id="havA4zZPDXx-xcr6uS7B-54" value="&lt;span style=&quot;font-weight: normal;&quot;&gt;&lt;font style=&quot;font-size: 10px;&quot;&gt;no&lt;/font&gt;&lt;/span&gt;" style="text;strokeColor=none;fillColor=none;html=1;fontSize=24;fontStyle=1;verticalAlign=middle;align=center;" parent="1" vertex="1">
          <mxGeometry x="545" y="679.5" width="20" height="10" as="geometry" />
        </mxCell>
        <mxCell id="havA4zZPDXx-xcr6uS7B-55" value="&lt;span style=&quot;font-weight: normal;&quot;&gt;&lt;font style=&quot;font-size: 10px;&quot;&gt;yes&lt;/font&gt;&lt;/span&gt;" style="text;strokeColor=none;fillColor=none;html=1;fontSize=24;fontStyle=1;verticalAlign=middle;align=center;" parent="1" vertex="1">
          <mxGeometry x="545" y="779.5" width="20" height="10" as="geometry" />
        </mxCell>
        <mxCell id="havA4zZPDXx-xcr6uS7B-56" value="" style="edgeStyle=elbowEdgeStyle;elbow=horizontal;endArrow=classic;html=1;curved=0;rounded=0;endSize=8;startSize=8;exitX=1;exitY=0.5;exitDx=0;exitDy=0;" parent="1" source="havA4zZPDXx-xcr6uS7B-8" edge="1">
          <mxGeometry width="50" height="50" relative="1" as="geometry">
            <mxPoint x="545" y="890.5" as="sourcePoint" />
            <mxPoint x="345" y="421" as="targetPoint" />
            <Array as="points">
              <mxPoint x="685" y="630.5" />
            </Array>
          </mxGeometry>
        </mxCell>
        <mxCell id="havA4zZPDXx-xcr6uS7B-57" value="" style="endArrow=classic;html=1;rounded=0;" parent="1" edge="1">
          <mxGeometry width="50" height="50" relative="1" as="geometry">
            <mxPoint x="625" y="749.2" as="sourcePoint" />
            <mxPoint x="685" y="749.2" as="targetPoint" />
          </mxGeometry>
        </mxCell>
        <mxCell id="havA4zZPDXx-xcr6uS7B-58" value="&lt;span style=&quot;font-weight: normal;&quot;&gt;&lt;font style=&quot;font-size: 10px;&quot;&gt;no&lt;/font&gt;&lt;/span&gt;" style="text;strokeColor=none;fillColor=none;html=1;fontSize=24;fontStyle=1;verticalAlign=middle;align=center;" parent="1" vertex="1">
          <mxGeometry x="620" y="729.5" width="20" height="10" as="geometry" />
        </mxCell>
        <mxCell id="havA4zZPDXx-xcr6uS7B-59" value="Check Input&lt;div&gt;(WriteEndGetInput)&lt;/div&gt;" style="rhombus;whiteSpace=wrap;html=1;shadow=1;" parent="1" vertex="1">
          <mxGeometry x="265" y="719.5" width="160" height="80.5" as="geometry" />
        </mxCell>
        <mxCell id="havA4zZPDXx-xcr6uS7B-62" value="" style="endArrow=classic;html=1;rounded=0;entryX=0.5;entryY=0;entryDx=0;entryDy=0;" parent="1" target="havA4zZPDXx-xcr6uS7B-9" edge="1">
          <mxGeometry width="50" height="50" relative="1" as="geometry">
            <mxPoint x="345" y="800" as="sourcePoint" />
            <mxPoint x="345" y="840" as="targetPoint" />
          </mxGeometry>
        </mxCell>
        <mxCell id="havA4zZPDXx-xcr6uS7B-63" value="&lt;span style=&quot;font-weight: normal;&quot;&gt;&lt;font style=&quot;font-size: 10px;&quot;&gt;&#39;Q&#39;/&#39;q&#39;&lt;/font&gt;&lt;/span&gt;" style="text;strokeColor=none;fillColor=none;html=1;fontSize=24;fontStyle=1;verticalAlign=middle;align=center;" parent="1" vertex="1">
          <mxGeometry x="353.41999999999996" y="800" width="20" height="10" as="geometry" />
        </mxCell>
        <mxCell id="havA4zZPDXx-xcr6uS7B-65" value="" style="edgeStyle=elbowEdgeStyle;elbow=horizontal;endArrow=classic;html=1;curved=0;rounded=0;endSize=8;startSize=8;exitX=0;exitY=0.5;exitDx=0;exitDy=0;entryX=0;entryY=0.5;entryDx=0;entryDy=0;" parent="1" source="havA4zZPDXx-xcr6uS7B-59" target="havA4zZPDXx-xcr6uS7B-11" edge="1">
          <mxGeometry width="50" height="50" relative="1" as="geometry">
            <mxPoint x="85" y="889.5" as="sourcePoint" />
            <mxPoint x="165" y="440" as="targetPoint" />
            <Array as="points">
              <mxPoint x="165" y="570" />
            </Array>
          </mxGeometry>
        </mxCell>
        <mxCell id="havA4zZPDXx-xcr6uS7B-66" value="&lt;span style=&quot;font-weight: normal;&quot;&gt;&lt;font style=&quot;font-size: 10px;&quot;&gt;&#39;Space&#39;/&#39;Enter&#39;&lt;/font&gt;&lt;/span&gt;" style="text;strokeColor=none;fillColor=none;html=1;fontSize=24;fontStyle=1;verticalAlign=middle;align=center;" parent="1" vertex="1">
          <mxGeometry x="222" y="739.5" width="20" height="10" as="geometry" />
        </mxCell>
        <mxCell id="havA4zZPDXx-xcr6uS7B-69" value="&lt;span style=&quot;font-size: 10px; font-weight: 400;&quot;&gt;arrow keys&lt;/span&gt;" style="text;strokeColor=none;fillColor=none;html=1;fontSize=24;fontStyle=1;verticalAlign=middle;align=center;" parent="1" vertex="1">
          <mxGeometry x="435" y="450" width="20" height="10" as="geometry" />
        </mxCell>
        <mxCell id="havA4zZPDXx-xcr6uS7B-71" value="&lt;span style=&quot;font-weight: normal;&quot;&gt;&lt;font style=&quot;font-size: 10px;&quot;&gt;yes&lt;/font&gt;&lt;/span&gt;" style="text;strokeColor=none;fillColor=none;html=1;fontSize=24;fontStyle=1;verticalAlign=middle;align=center;" parent="1" vertex="1">
          <mxGeometry x="435" y="630" width="20" height="10" as="geometry" />
        </mxCell>
        <mxCell id="havA4zZPDXx-xcr6uS7B-73" value="" style="edgeStyle=segmentEdgeStyle;endArrow=classic;html=1;curved=0;rounded=0;endSize=8;startSize=8;entryX=0.5;entryY=0;entryDx=0;entryDy=0;" parent="1" target="havA4zZPDXx-xcr6uS7B-5" edge="1">
          <mxGeometry width="50" height="50" relative="1" as="geometry">
            <mxPoint x="425" y="470" as="sourcePoint" />
            <mxPoint x="545" y="500" as="targetPoint" />
          </mxGeometry>
        </mxCell>
        <mxCell id="havA4zZPDXx-xcr6uS7B-75" value="" style="edgeStyle=segmentEdgeStyle;endArrow=classic;html=1;curved=0;rounded=0;endSize=8;startSize=8;entryX=0.5;entryY=0;entryDx=0;entryDy=0;" parent="1" target="havA4zZPDXx-xcr6uS7B-59" edge="1">
          <mxGeometry width="50" height="50" relative="1" as="geometry">
            <mxPoint x="463.4200000000001" y="650" as="sourcePoint" />
            <mxPoint x="405.04" y="700" as="targetPoint" />
          </mxGeometry>
        </mxCell>
        <mxCell id="havA4zZPDXx-xcr6uS7B-76" value="&#39;P&#39;/&#39;p&#39;" style="text;whiteSpace=wrap;" parent="1" vertex="1">
          <mxGeometry x="310" y="499" width="35" height="21" as="geometry" />
        </mxCell>
        <mxCell id="havA4zZPDXx-xcr6uS7B-81" value="Pause Game" style="rounded=0;whiteSpace=wrap;html=1;shadow=1;" parent="1" vertex="1">
          <mxGeometry x="285" y="560" width="120" height="40" as="geometry" />
        </mxCell>
        <mxCell id="havA4zZPDXx-xcr6uS7B-82" value="" style="endArrow=classic;html=1;rounded=0;" parent="1" edge="1">
          <mxGeometry width="50" height="50" relative="1" as="geometry">
            <mxPoint x="344.57" y="499" as="sourcePoint" />
            <mxPoint x="345" y="560" as="targetPoint" />
          </mxGeometry>
        </mxCell>
        <mxCell id="havA4zZPDXx-xcr6uS7B-83" value="" style="endArrow=classic;html=1;rounded=0;exitX=1;exitY=0.5;exitDx=0;exitDy=0;" parent="1" source="havA4zZPDXx-xcr6uS7B-81" edge="1">
          <mxGeometry width="50" height="50" relative="1" as="geometry">
            <mxPoint x="415" y="580.07" as="sourcePoint" />
            <mxPoint x="545" y="580" as="targetPoint" />
          </mxGeometry>
        </mxCell>
        <mxCell id="havA4zZPDXx-xcr6uS7B-84" value="&#39;Q&#39;/&#39;q&#39;" style="text;whiteSpace=wrap;" parent="1" vertex="1">
          <mxGeometry x="230" y="439" width="35" height="21" as="geometry" />
        </mxCell>
        <mxCell id="havA4zZPDXx-xcr6uS7B-85" value="" style="edgeStyle=elbowEdgeStyle;elbow=horizontal;endArrow=classic;html=1;curved=0;rounded=0;endSize=8;startSize=8;exitX=0;exitY=0.5;exitDx=0;exitDy=0;" parent="1" source="havA4zZPDXx-xcr6uS7B-4" edge="1">
          <mxGeometry width="50" height="50" relative="1" as="geometry">
            <mxPoint x="145" y="505" as="sourcePoint" />
            <mxPoint x="345" y="650" as="targetPoint" />
            <Array as="points">
              <mxPoint x="205" y="560" />
            </Array>
          </mxGeometry>
        </mxCell>
        <mxCell id="YDFFReSYQGu3Dojii9IU-1" value="&lt;font style=&quot;font-size: 25px;&quot;&gt;Wireframe of manio143 / Snake&lt;/font&gt;" style="text;strokeColor=none;fillColor=none;html=1;fontSize=24;fontStyle=1;verticalAlign=middle;align=center;" parent="1" vertex="1">
          <mxGeometry x="180" y="40" width="350" height="40" as="geometry" />
        </mxCell>
        <mxCell id="YDFFReSYQGu3Dojii9IU-2" value="&lt;span style=&quot;font-weight: normal;&quot;&gt;&lt;font style=&quot;font-size: 20px;&quot;&gt;by John Maniebo&amp;nbsp;&lt;/font&gt;&lt;/span&gt;" style="text;strokeColor=none;fillColor=none;html=1;fontSize=24;fontStyle=1;verticalAlign=middle;align=center;" parent="1" vertex="1">
          <mxGeometry x="610" y="70" width="220" height="40" as="geometry" />
        </mxCell>
      </root>
    </mxGraphModel>
  </diagram>
</mxfile>
